<?xml version="1.0" encoding="utf-8"?>
<!-- Generator: Adobe Illustrator 15.0.0, SVG Export Plug-In  -->
<!DOCTYPE svg PUBLIC "-//W3C//DTD SVG 1.1//EN" "http://www.w3.org/Graphics/SVG/1.1/DTD/svg11.dtd" [
	<!ENTITY ns_flows "http://ns.adobe.com/Flows/1.0/">
]>
<svg version="1.1"
	 xmlns="http://www.w3.org/2000/svg" xmlns:xlink="http://www.w3.org/1999/xlink" xmlns:a="http://ns.adobe.com/AdobeSVGViewerExtensions/3.0/"
	 x="0px" y="0px" width="381px" height="216px" viewBox="-0.732 -0.875 381 216"
	 overflow="visible" enable-background="new -0.732 -0.875 381 216" xml:space="preserve">
<defs>
</defs>
<path fill="#414042" d="M66.983,93.86c1.073,9.723-4.342,15.242-16.246,16.557c-5.341,0.59-10.015,0.301-14.022-0.865l0.568-7.459
	c3.563,1.257,7.16,1.685,10.788,1.284c2.793-0.309,4.769-0.825,5.926-1.552c1.738-1.079,2.471-2.852,2.198-5.318
	c-0.216-1.957-1.557-3.542-4.022-4.755c-1.134-0.556-3.223-1.254-6.266-2.094c-3.831-1.062-6.704-2.509-8.619-4.34
	c-2.193-2.11-3.494-5.02-3.904-8.73c-0.475-4.3,1.056-7.823,4.59-10.565c2.983-2.31,6.779-3.719,11.387-4.228
	c4.871-0.538,8.947-0.348,12.226,0.569l-0.371,7.004c-4.047-0.584-7.538-0.715-10.474-0.391c-5.3,0.585-7.778,2.427-7.437,5.526
	c0.229,2.079,1.537,3.647,3.924,4.704c0.283,0.134,2.438,0.69,6.467,1.669C61.817,82.867,66.247,87.194,66.983,93.86z"/>
<path fill="#414042" d="M104.814,85.628c0.659,5.973-0.312,10.732-2.911,14.28c-2.688,3.681-6.999,5.848-12.931,6.503
	c-5.83,0.644-10.501-0.553-14.014-3.59c-3.42-2.944-5.454-7.352-6.103-13.222c-0.646-5.85,0.38-10.575,3.077-14.174
	c2.747-3.708,7.026-5.882,12.835-6.524c5.83-0.644,10.489,0.534,13.977,3.533C102.142,75.359,104.166,79.757,104.814,85.628z
	 M94.54,86.763c-0.945-8.561-3.986-12.559-9.123-11.991c-5.096,0.563-7.171,5.125-6.226,13.686
	c0.945,8.562,3.966,12.561,9.062,11.998C93.389,99.888,95.485,95.324,94.54,86.763z"/>
<path fill="#414042" d="M126.43,55.604l-2.034,5.61c-1.477-0.89-2.957-1.252-4.44-1.088c-2.337,0.258-3.319,2.08-2.945,5.463
	l0.077,0.703l6.574-0.726l0.696,6.299l-6.574,0.726l3.251,29.445l-9.937,1.097l-3.252-29.445l-4.923,0.543l-0.695-6.299l4.923-0.543
	l-0.044-0.397c-0.394-3.566,0.319-6.477,2.142-8.732c1.821-2.254,4.523-3.579,8.105-3.974
	C120.895,53.894,123.92,54.333,126.43,55.604z"/>
<path fill="#414042" d="M154.31,96.937c-2.056,1.383-4.917,2.276-8.586,2.682c-3.527,0.389-6.349-0.496-8.464-2.656
	c-1.951-1.971-3.126-4.761-3.524-8.369l-1.938-17.551l-4.709,0.52l-0.695-6.299l4.708-0.52l-0.499-4.525l9.306-7.094l1.161,10.518
	l7.431-0.82l0.695,6.299l-7.43,0.82l2.005,18.162c0.203,1.834,0.643,3.117,1.322,3.846c0.799,0.882,2.074,1.226,3.828,1.032
	c1.569-0.173,2.702-0.474,3.397-0.902L154.31,96.937z"/>
<path fill="#414042" d="M205.803,56.495l-10.576,37.348l-6.513,0.719l-8.79-17.661l-5.428,19.23l-6.818,0.753l-17.217-34.278
	l11.19-1.236l9.98,20.314l5.308-22.002l4.953-0.547l10.267,20.098l5.756-21.867L205.803,56.495z"/>
<path fill="#414042" d="M240.035,88.894l-8.897,0.982l-1.131-4.641c-0.716,1.75-2.04,3.208-3.975,4.369
	c-1.723,1.036-3.612,1.668-5.671,1.895c-7.97,0.88-12.408-2.787-13.315-11.001c-0.433-3.914,0.554-7.159,2.959-9.735
	c2.275-2.438,5.406-3.877,9.393-4.317c3.475-0.384,6.356,0.33,8.646,2.14l-0.523-4.739c-0.322-2.915-2.62-4.136-6.896-3.664
	c-3.785,0.418-6.996,1.526-9.635,3.323l-1.511-5.528c3.984-2.214,8.301-3.578,12.948-4.091c9.051-0.999,14.058,2.863,15.021,11.587
	L240.035,88.894z M229.026,77.482c-0.52-4.709-2.768-6.843-6.742-6.404c-4.057,0.448-5.822,3.046-5.298,7.796
	c0.479,4.342,2.747,6.289,6.804,5.841C227.764,84.276,229.51,81.865,229.026,77.482z"/>
<path fill="#414042" d="M260.345,59.2c-2.772,0.306-5.019,1.358-6.738,3.158c-2.201,2.307-3.091,5.366-2.67,9.177l1.763,15.961
	l-9.876,1.09l-3.947-35.743l9.632-1.064l0.82,7.43c0.251-2.214,1.094-4.206,2.528-5.974c1.563-1.906,3.405-2.976,5.525-3.21
	c0.856-0.094,1.505-0.104,1.946-0.029L260.345,59.2z"/>
<path fill="#414042" d="M295.627,66.6l-23.238,2.566c0.774,7.013,4.301,10.171,10.579,9.478c3.282-0.363,6.684-1.594,10.207-3.696
	l2.123,5.212c-3.804,2.731-8.254,4.378-13.35,4.94c-5.748,0.635-10.336-0.55-13.764-3.556c-3.311-2.894-5.287-7.246-5.929-13.056
	c-0.625-5.667,0.282-10.337,2.724-14.011c2.618-3.941,6.71-6.219,12.275-6.834c5.381-0.594,9.622,0.537,12.723,3.392
	c2.919,2.711,4.681,6.787,5.281,12.23L295.627,66.6z M285.857,62.479c-1.097-6.564-3.755-9.613-7.974-9.147
	c-4.403,0.486-6.393,4.049-5.97,10.687L285.857,62.479z"/>
<path fill="#00AAC8" d="M127.054,140.179l-17.416-19.648l2.31,20.914l-3.781,0.417l-3.219-29.151l1.592-0.176l16.892,18.538
	l-2.227-20.158l3.781-0.417l3.263,29.55L127.054,140.179z"/>
<path fill="#00AAC8" d="M134.688,138.934l-2.002-18.128l-2.926,0.323l-0.352-3.184l6.706-0.74l2.354,21.312L134.688,138.934z
	 M133.514,109.334c0.649-0.072,1.229,0.096,1.736,0.503c0.509,0.407,0.798,0.929,0.868,1.566c0.072,0.65-0.096,1.229-0.503,1.737
	c-0.407,0.509-0.936,0.799-1.586,0.871c-0.637,0.07-1.209-0.098-1.717-0.506c-0.509-0.407-0.799-0.935-0.87-1.585
	c-0.072-0.65,0.093-1.225,0.494-1.726S132.864,109.406,133.514,109.334z"/>
<path fill="#00AAC8" d="M155.227,134.188c-1.303,2.063-3.513,3.268-6.63,3.612c-1.672,0.185-3.188-0.263-4.55-1.341
	c-1.36-1.078-2.141-2.52-2.34-4.323c-0.239-2.162,0.505-4.095,2.23-5.796s4.054-2.713,6.985-3.037
	c0.796-0.088,1.717-0.015,2.764,0.219c-0.381-3.449-2.11-5.004-5.188-4.664c-2.362,0.261-4.108,1.099-5.241,2.513l-1.941-2.988
	c0.652-0.662,1.588-1.273,2.809-1.831c1.221-0.558,2.408-0.9,3.562-1.027c3.091-0.341,5.413,0.114,6.968,1.365
	c1.556,1.252,2.502,3.409,2.841,6.474l0.844,7.642c0.206,1.87,0.901,3.056,2.085,3.556l0.208,1.891
	c-1.539,0.17-2.714,0.079-3.525-0.275C156.297,135.821,155.67,135.159,155.227,134.188z M153.984,126.208
	c-1.224-0.134-2.073-0.174-2.551-0.121c-1.911,0.211-3.415,0.874-4.514,1.988c-1.1,1.115-1.575,2.343-1.427,3.683
	c0.244,2.216,1.674,3.179,4.287,2.891c1.91-0.211,3.501-1.307,4.772-3.287L153.984,126.208z"/>
<path fill="#00AAC8" d="M163.718,141.629l1.716-3.252c2.364,1.229,4.476,1.742,6.333,1.537c1.711-0.189,3.028-0.634,3.951-1.332
	c0.923-0.7,1.336-1.488,1.239-2.363c-0.19-1.725-1.532-2.449-4.026-2.174c-0.425,0.047-1.182,0.238-2.272,0.573
	s-1.949,0.538-2.572,0.606c-3.024,0.334-4.662-0.64-4.914-2.922c-0.078-0.703,0.206-1.379,0.854-2.027
	c0.646-0.648,1.479-1.157,2.5-1.525c-3.153-1.074-4.922-3.35-5.306-6.826c-0.246-2.229,0.325-4.171,1.713-5.829
	c1.388-1.657,3.223-2.611,5.505-2.863c2.096-0.231,3.782,0.019,5.058,0.75l1.64-2.477l2.725,2.056l-2.079,1.962
	c1.107,1.153,1.773,2.744,1.997,4.774c0.237,2.148-0.233,4.027-1.412,5.635s-2.845,2.637-4.996,3.09l-3.089,0.663
	c-0.367,0.081-0.849,0.278-1.445,0.592c-0.596,0.315-0.872,0.671-0.828,1.069c0.06,0.544,0.739,0.744,2.04,0.6
	c0.57-0.062,1.447-0.264,2.632-0.603s2.068-0.54,2.652-0.604c2.096-0.232,3.786,0.089,5.071,0.96
	c1.284,0.873,2.025,2.196,2.222,3.975c0.217,1.964-0.487,3.646-2.112,5.047s-3.783,2.251-6.476,2.548
	c-1.38,0.152-2.859,0.067-4.439-0.255S164.724,142.229,163.718,141.629z M169.033,116.248c-1.313,0.145-2.334,0.728-3.06,1.748
	c-0.727,1.021-1.017,2.193-0.87,3.52c0.164,1.487,0.7,2.672,1.611,3.559c0.91,0.886,2.048,1.254,3.415,1.103
	c1.339-0.147,2.335-0.737,2.986-1.77s0.893-2.317,0.723-3.856c-0.146-1.326-0.679-2.409-1.598-3.247
	C171.323,116.465,170.253,116.113,169.033,116.248z"/>
<path fill="#00AAC8" d="M195.056,129.789c-1.303,2.064-3.513,3.269-6.63,3.613c-1.672,0.184-3.188-0.263-4.55-1.342
	c-1.36-1.078-2.141-2.52-2.34-4.323c-0.239-2.162,0.505-4.095,2.229-5.795c1.727-1.702,4.055-2.714,6.986-3.038
	c0.796-0.088,1.717-0.015,2.764,0.218c-0.381-3.449-2.11-5.003-5.188-4.664c-2.361,0.261-4.108,1.098-5.241,2.512l-1.94-2.988
	c0.651-0.662,1.588-1.272,2.809-1.831c1.22-0.557,2.408-0.9,3.562-1.027c3.09-0.341,5.413,0.114,6.968,1.366
	c1.555,1.251,2.502,3.409,2.841,6.474l0.844,7.641c0.206,1.871,0.901,3.057,2.084,3.557l0.209,1.891
	c-1.539,0.17-2.714,0.078-3.525-0.275C196.125,131.423,195.499,130.761,195.056,129.789z M193.813,121.81
	c-1.224-0.133-2.074-0.174-2.552-0.121c-1.91,0.211-3.415,0.874-4.514,1.989s-1.574,2.342-1.426,3.682
	c0.244,2.216,1.673,3.18,4.287,2.891c1.91-0.211,3.501-1.307,4.772-3.287L193.813,121.81z"/>
<path fill="#00AAC8" d="M213.31,112.365c-0.886-0.479-1.746-0.673-2.582-0.581c-1.34,0.148-2.442,0.894-3.308,2.238
	c-0.866,1.345-1.202,2.886-1.01,4.624l1.349,12.217l-3.78,0.418l-2.354-21.312l3.78-0.417l0.376,3.402
	c1.1-2.686,3.009-4.179,5.729-4.479c0.677-0.075,1.665-0.063,2.965,0.035L213.31,112.365z"/>
<path fill="#00AAC8" d="M230.269,125.9c-1.303,2.064-3.513,3.269-6.631,3.613c-1.671,0.184-3.188-0.263-4.549-1.342
	c-1.36-1.078-2.142-2.519-2.341-4.322c-0.238-2.163,0.506-4.095,2.23-5.796c1.727-1.702,4.055-2.713,6.986-3.037
	c0.796-0.088,1.717-0.015,2.763,0.218c-0.381-3.448-2.109-5.003-5.188-4.663c-2.361,0.261-4.108,1.098-5.241,2.512l-1.94-2.988
	c0.651-0.662,1.587-1.273,2.809-1.831c1.22-0.558,2.408-0.9,3.562-1.028c3.091-0.341,5.414,0.114,6.969,1.366
	c1.555,1.252,2.502,3.41,2.84,6.474l0.844,7.641c0.207,1.871,0.901,3.057,2.085,3.557l0.209,1.891
	c-1.539,0.17-2.714,0.078-3.525-0.275S230.711,126.872,230.269,125.9z M229.025,117.921c-1.223-0.133-2.073-0.174-2.551-0.121
	c-1.91,0.211-3.415,0.875-4.514,1.989c-1.099,1.115-1.574,2.343-1.427,3.682c0.245,2.217,1.674,3.18,4.288,2.891
	c1.91-0.211,3.501-1.307,4.772-3.286L229.025,117.921z"/>
<path fill="#00AAC8" d="M274.207,21.85c-1.541-0.729-3.936-1.935-7.852-3.509c4.145,1.781,6.857,3.216,7.503,3.629
	C273.876,21.951,279.537,24.57,274.207,21.85z"/>
<path fill="#00AAC8" d="M35.469,156.351c0.388,0.228,0.791,0.443,1.183,0.667c-2.336-1.327-4.57-2.702-6.699-4.131
	C31.729,154.079,33.566,155.237,35.469,156.351z"/>
<path fill="#00AAC8" d="M29.953,152.887c-0.083-0.057-0.168-0.111-0.252-0.168C29.784,152.775,29.869,152.83,29.953,152.887z"/>
<path fill="#00AAC8" d="M29.701,152.719c-1.075-0.726-2.124-1.467-3.148-2.221C27.577,151.251,28.625,151.992,29.701,152.719z"/>
<path fill="#00AAC8" d="M41.017,159.386c-0.058-0.03-0.115-0.061-0.173-0.091C40.902,159.325,40.959,159.355,41.017,159.386z"/>
<path fill="#00AAC8" d="M26.552,150.498c-0.082-0.061-0.164-0.121-0.246-0.182C26.388,150.377,26.47,150.438,26.552,150.498z"/>
<path fill="#00AAC8" d="M40.844,159.295c-1.165-0.602-2.299-1.216-3.415-1.839C38.545,158.081,39.684,158.694,40.844,159.295z"/>
<path fill="#00AAC8" d="M37.43,157.456c-0.26-0.146-0.52-0.291-0.778-0.438C36.91,157.164,37.169,157.311,37.43,157.456z"/>
<path fill="#00AAC8" d="M133.32,5.534c0.696-0.134,1.392-0.268,2.089-0.397C134.717,5.266,134.019,5.399,133.32,5.534z"/>
<path fill="#00AAC8" d="M0.509,98.786c0.016-0.13,0.041-0.261,0.058-0.391C0.55,98.525,0.524,98.656,0.509,98.786z"/>
<path fill="#00AAC8" d="M190.123,0.009c11.317,0,19.284,0.67,22.219,0.92c0.014,0.005,0.099,0.015,0.591,0.05
	c1.966,0.161,7.957,0.639,16.705,1.957c9.8,1.492,24.57,4.454,39.306,10.106c15.487,5.857,28.972,14.129,37.961,23.292
	c4.799,4.839,8.588,10.062,11.265,15.522c2.479,5.035,4.029,10.334,4.605,15.74h0.014c-0.58-5.41-2.131-10.705-4.606-15.75
	c-2.676-5.455-6.47-10.679-11.269-15.521c-8.994-9.164-22.474-17.438-37.97-23.296c-14.731-5.647-29.506-8.615-39.306-10.107
	c-8.743-1.318-14.735-1.796-16.705-1.952c-0.34-0.026-0.554-0.045-0.582-0.05l0.005-0.004h-0.014C209.407,0.67,201.445,0,190.123,0
	c-2.181,0-4.485,0.022-6.907,0.081c-0.675,0.016-1.361,0.049-2.039,0.07c0.697-0.022,1.383-0.042,2.039-0.058
	C185.637,0.036,187.942,0.009,190.123,0.009z"/>
<path fill="#00AAC8" d="M7.16,129.819c-3.7-6.242-5.96-12.913-6.72-19.82c-0.415-3.702-0.391-7.448,0.069-11.213
	c-0.005,0.043-0.014,0.085-0.019,0.128c-0.447,3.735-0.465,7.461-0.063,11.085c0.76,6.912,3.025,13.583,6.725,19.825
	c3.226,5.481,7.613,10.714,13.038,15.549c1.914,1.7,3.961,3.349,6.117,4.943c-2.143-1.587-4.18-3.235-6.113-4.953
	C14.773,140.529,10.385,135.298,7.16,129.819z"/>
<path fill="#00AAC8" d="M180.204,0.185c0.324-0.011,0.649-0.023,0.973-0.034C180.858,0.161,180.53,0.173,180.204,0.185z"/>
<path fill="#00AAC8" d="M135.409,5.137c1.859-0.345,3.69-0.665,5.498-0.966C139.068,4.478,137.236,4.798,135.409,5.137z"/>
<path fill="#00AAC8" d="M140.907,4.171c0.63-0.105,1.26-0.212,1.892-0.313C142.174,3.958,141.539,4.066,140.907,4.171z"/>
<path fill="#00AAC8" d="M159.18,1.657c-5.469,0.581-10.942,1.328-16.381,2.2c14.94-2.393,27.905-3.34,37.404-3.672
	C173.304,0.424,166.251,0.909,159.18,1.657z"/>
<path fill="#00AAC8" d="M16.64,64.542C28.222,50.561,46.399,37.17,67.809,26.83c18.642-9.061,40.342-16.236,62.759-20.758
	c0.925-0.188,1.838-0.361,2.752-0.538c-0.918,0.177-1.843,0.339-2.757,0.524C108.147,10.58,86.445,17.76,67.805,26.817
	c-10.438,5.04-20.067,10.755-28.627,16.992c-9.003,6.559-16.59,13.534-22.551,20.723c-3.064,3.682-5.755,7.488-8.002,11.309
	c-2.257,3.843-4.084,7.734-5.434,11.572c-1.276,3.631-2.151,7.322-2.625,10.982c0.474-3.65,1.348-7.316,2.639-10.978
	C5.917,79.688,10.435,71.989,16.64,64.542z"/>
<path fill="#00AAC8" d="M256.41,151.034c-1.384,0.684-2.784,1.355-4.197,2.017C253.627,152.39,255.025,151.718,256.41,151.034z"/>
<path fill="#00AAC8" d="M250.364,153.906c-1.252,0.572-2.514,1.135-3.786,1.688C247.851,155.04,249.112,154.478,250.364,153.906z"/>
<path fill="#00AAC8" d="M252.213,153.051c-0.614,0.287-1.229,0.572-1.849,0.855C250.983,153.623,251.599,153.338,252.213,153.051z"
	/>
<path fill="#00AAC8" d="M244.21,156.608c0.793-0.335,1.582-0.673,2.368-1.015C245.792,155.936,245.003,156.273,244.21,156.608z"/>
<path fill="#00AAC8" d="M257.654,150.413c-0.414,0.208-0.827,0.415-1.244,0.621C256.826,150.828,257.24,150.621,257.654,150.413z"/>
<path fill="#00AAC8" d="M262.09,148.122c-1.459,0.776-2.939,1.539-4.436,2.291C259.152,149.661,260.63,148.898,262.09,148.122z"/>
<path fill="#00AAC8" d="M263.174,147.539c-0.361,0.194-0.721,0.39-1.084,0.583C262.453,147.929,262.813,147.733,263.174,147.539z"/>
<path fill="#00AAC8" d="M2.266,89.934c0.106-0.352,0.206-0.703,0.319-1.055C2.472,89.231,2.372,89.583,2.266,89.934z"/>
<path fill="#00AAC8" d="M3.132,87.293c0.144-0.405,0.286-0.811,0.439-1.215C3.417,86.482,3.276,86.888,3.132,87.293z"/>
<path fill="#00AAC8" d="M2.585,88.879c0.171-0.529,0.359-1.058,0.547-1.586C2.944,87.822,2.756,88.35,2.585,88.879z"/>
<path fill="#00AAC8" d="M4.328,84.181c0.079-0.19,0.155-0.38,0.237-0.571C4.483,83.801,4.408,83.991,4.328,84.181z"/>
<path fill="#00AAC8" d="M3.773,85.519c-0.073,0.186-0.131,0.373-0.202,0.559c0.24-0.633,0.493-1.265,0.757-1.896
	C4.142,84.627,3.947,85.072,3.773,85.519z"/>
<path fill="#00AAC8" d="M4.565,83.61c0.336-0.781,0.689-1.561,1.062-2.339C5.255,82.049,4.9,82.829,4.565,83.61z"/>
<path fill="#00AAC8" d="M17.302,63.741l-0.01-0.005c-1.254,1.448-5.074,5.857-8.766,12.087c-1.023,1.727-1.957,3.482-2.808,5.25
	c0.847-1.757,1.786-3.507,2.818-5.247C12.227,69.604,16.046,65.193,17.302,63.741z"/>
<path fill="#00AAC8" d="M5.626,81.271c0.032-0.065,0.061-0.132,0.092-0.197C5.687,81.139,5.658,81.205,5.626,81.271z"/>
<path fill="#00AAC8" d="M48.893,163.132c-0.536-0.232-1.068-0.468-1.598-0.705C47.825,162.664,48.357,162.898,48.893,163.132z"/>
<path fill="#00AAC8" d="M44.322,161.045c-0.339-0.162-0.678-0.324-1.014-0.488C43.644,160.721,43.983,160.883,44.322,161.045z"/>
<path fill="#00AAC8" d="M1.745,91.727c0.159-0.598,0.341-1.195,0.521-1.793C2.085,90.532,1.904,91.13,1.745,91.727z"/>
<path fill="#00AAC8" d="M47.295,162.427c-1.003-0.452-1.994-0.912-2.973-1.382C45.302,161.515,46.292,161.976,47.295,162.427z"/>
<path fill="#00AAC8" d="M132.008,178.735c-0.231-0.001-0.461-0.005-0.692-0.007C131.546,178.73,131.777,178.734,132.008,178.735z"/>
<path fill="#00AAC8" d="M3.832,123.484c-3.517-8.298-4.634-17.403-3.228-26.331c0.255-1.649,0.604-3.301,1.025-4.952
	c-0.425,1.657-0.784,3.31-1.038,4.948c-1.407,8.932-0.291,18.037,3.23,26.339c3.713,8.891,10.451,17.398,19.485,24.601
	c4.303,3.468,9.258,6.752,14.731,9.755c0.435,0.239,0.892,0.466,1.333,0.701c-5.991-3.196-11.412-6.722-16.056-10.464
	C14.282,140.878,7.544,132.375,3.832,123.484z"/>
<path fill="#00AAC8" d="M43.309,160.557c-1.163-0.569-2.306-1.152-3.431-1.745C41.003,159.405,42.145,159.987,43.309,160.557z"/>
<path fill="#00AAC8" d="M1.629,92.201c0.041-0.158,0.074-0.316,0.116-0.474C1.703,91.885,1.669,92.043,1.629,92.201z"/>
<path fill="#00AAC8" d="M39.878,158.812c-0.168-0.089-0.339-0.177-0.506-0.267C39.539,158.635,39.709,158.723,39.878,158.812z"/>
<path fill="#00AAC8" d="M146.288,178.476c-0.456,0.021-0.91,0.031-1.365,0.05C145.378,178.507,145.832,178.496,146.288,178.476z"/>
<path fill="#00AAC8" d="M137.818,178.712c-0.628,0.009-1.257,0.019-1.884,0.023C136.562,178.73,137.19,178.721,137.818,178.712z"/>
<path fill="#00AAC8" d="M144.923,178.525c-2.378,0.092-4.747,0.154-7.105,0.187C140.177,178.68,142.545,178.618,144.923,178.525z"/>
<path fill="#00AAC8" d="M152.135,178.153c-0.806,0.052-1.61,0.099-2.415,0.144C150.525,178.252,151.33,178.205,152.135,178.153z"/>
<path fill="#00AAC8" d="M149.72,178.297c-1.145,0.064-2.291,0.129-3.432,0.179C147.43,178.426,148.575,178.361,149.72,178.297z"/>
<path fill="#00AAC8" d="M158.101,177.705c-0.875,0.074-1.751,0.151-2.625,0.218C156.35,177.856,157.226,177.779,158.101,177.705z"/>
<path fill="#00AAC8" d="M155.476,177.923c-1.115,0.084-2.228,0.159-3.34,0.23C153.248,178.082,154.36,178.008,155.476,177.923z"/>
<path fill="#00AAC8" d="M134.043,178.758c0.627,0,1.262-0.019,1.891-0.022c-1.312,0.009-2.622,0.011-3.927,0
	C132.688,178.741,133.362,178.758,134.043,178.758z"/>
<path fill="#00AAC8" d="M27.644,63.045c0.021-0.022,0.042-0.044,0.062-0.066C27.685,63,27.664,63.023,27.644,63.045z"/>
<path fill="#00AAC8" d="M29.444,61.151c0.576-0.59,1.169-1.186,1.784-1.788C30.624,59.957,30.029,60.552,29.444,61.151z"/>
<path fill="#00AAC8" d="M33.221,57.462c0.021-0.02,0.042-0.039,0.063-0.059C33.263,57.423,33.242,57.442,33.221,57.462z"/>
<path fill="#00AAC8" d="M31.311,59.284c0.617-0.603,1.253-1.21,1.91-1.822C32.573,58.065,31.936,58.673,31.311,59.284z"/>
<path fill="#00AAC8" d="M31.229,59.364c0.027-0.026,0.055-0.053,0.082-0.08C31.284,59.311,31.255,59.337,31.229,59.364z"/>
<path fill="#00AAC8" d="M29.375,61.222c0.022-0.023,0.046-0.047,0.069-0.07C29.422,61.175,29.398,61.198,29.375,61.222z"/>
<path fill="#00AAC8" d="M10.345,92.821c0.015-0.06,0.032-0.119,0.047-0.178C10.376,92.702,10.36,92.761,10.345,92.821z"/>
<path fill="#00AAC8" d="M10.392,92.643c0.198-0.775,0.417-1.551,0.653-2.327C10.808,91.092,10.59,91.868,10.392,92.643z"/>
<path fill="#00AAC8" d="M27.705,62.979c0.538-0.58,1.094-1.165,1.67-1.757C28.808,61.805,28.252,62.39,27.705,62.979z"/>
<path fill="#00AAC8" d="M13.346,84.167c0.268-0.608,0.536-1.217,0.828-1.825C13.883,82.95,13.614,83.559,13.346,84.167z"/>
<path fill="#00AAC8" d="M10.345,92.821c-0.44,1.748-0.79,3.488-1.023,5.204c-0.549,4.174-0.441,6.813-0.405,7.681
	c0.004,0.161,0.008,0.268,0.004,0.277l0.004,0.005v0.004h0.005c0.009-0.009,0.009-0.054,0-0.286
	c-0.035-0.867-0.147-3.507,0.406-7.676C9.571,96.297,9.909,94.56,10.345,92.821z"/>
<path fill="#00AAC8" d="M14.174,82.343c0.092-0.192,0.193-0.383,0.288-0.574C14.368,81.96,14.267,82.151,14.174,82.343z"/>
<path fill="#00AAC8" d="M27.644,63.045c-0.141,0.152-0.288,0.303-0.427,0.455c-4.087,4.464-7.506,8.998-10.164,13.476
	c-0.949,1.583-1.799,3.185-2.59,4.793c0.788-1.599,1.649-3.194,2.603-4.783C19.265,73.271,22.633,68.451,27.644,63.045z"/>
<path fill="#00AAC8" d="M87.133,24.999c16.63-6.631,35.464-11.796,54.461-14.941c15.474-2.582,31.527-3.933,46.74-3.933
	c1.592,0,3.178,0.015,4.751,0.046c16.419,0.285,29.636,2.126,37.83,3.623c9.87,1.796,16.335,3.699,18.462,4.325l0.005-0.014
	c-2.127-0.625-8.597-2.529-18.467-4.325c-8.194-1.496-21.411-3.337-37.83-3.623c-1.573-0.027-3.155-0.045-4.751-0.045
	c-15.213,0-31.271,1.349-46.744,3.937c-18.993,3.141-37.827,8.311-54.462,14.94c-16.96,6.716-32.366,15.219-44.551,24.58
	c-3.297,2.519-6.399,5.139-9.294,7.834c2.734-2.543,5.821-5.167,9.304-7.826C54.768,40.217,70.172,31.719,87.133,24.999z"/>
<path fill="#00AAC8" d="M11.516,88.812c-0.122,0.359-0.225,0.719-0.338,1.078c0.2-0.636,0.419-1.272,0.646-1.908
	C11.725,88.258,11.61,88.535,11.516,88.812z"/>
<path fill="#00AAC8" d="M11.045,90.315c0.043-0.142,0.089-0.284,0.133-0.426C11.134,90.032,11.088,90.173,11.045,90.315z"/>
<path fill="#00AAC8" d="M11.824,87.982c0.134-0.374,0.274-0.748,0.416-1.122C12.098,87.234,11.958,87.607,11.824,87.982z"/>
<path fill="#00AAC8" d="M12.24,86.86c0.214-0.56,0.432-1.121,0.666-1.681C12.672,85.739,12.454,86.299,12.24,86.86z"/>
<path fill="#00AAC8" d="M12.906,85.179c0.141-0.337,0.292-0.674,0.44-1.012C13.198,84.505,13.046,84.842,12.906,85.179z"/>
<path fill="#00AAC8" d="M357.531,123.479c-0.699-0.331-1.787-0.878-3.571-1.593c1.885,0.807,3.123,1.461,3.416,1.646
	C357.379,123.523,359.922,124.699,357.531,123.479z"/>
<path fill="#00AAC8" d="M253.223,132.506c0.001-0.001,0.003-0.002,0.005-0.004C253.227,132.504,253.225,132.505,253.223,132.506z"/>
<path fill="#00AAC8" d="M262.479,126.928c0.456-0.237,0.915-0.471,1.378-0.701C263.394,126.457,262.934,126.69,262.479,126.928z"/>
<path fill="#00AAC8" d="M297.082,193.722c-0.328,0.008-0.654,0.014-0.981,0.019C296.427,193.735,296.754,193.729,297.082,193.722z"
	/>
<path fill="#00AAC8" d="M260.218,128.145c0.743-0.414,1.496-0.819,2.26-1.217C261.713,127.325,260.961,127.73,260.218,128.145z"/>
<path fill="#00AAC8" d="M316.684,113.717c6.011-0.144,10.34,0.147,13.074,0.375c0.014,0.005,0.062,0.005,0.268,0.022
	c2.373,0.191,4.897,0.487,7.498,0.88c4.396,0.666,11.022,1.998,17.645,4.535c6.952,2.627,13.001,6.34,17.037,10.455
	c2.152,2.172,3.855,4.518,5.057,6.966c1.113,2.262,1.81,4.639,2.068,7.068l0.01-0.005c-0.26-2.425-0.952-4.807-2.068-7.068
	c-1.198-2.452-2.9-4.799-5.059-6.969c-4.034-4.115-10.09-7.828-17.045-10.46c-6.618-2.539-13.248-3.865-17.645-4.536
	c-2.601-0.393-5.121-0.688-7.498-0.88c-0.139-0.009-0.237-0.018-0.26-0.018l0.006-0.005h-0.009
	c-2.739-0.228-7.068-0.518-13.079-0.375c-2.771,0.067-6.366,0.253-10.534,0.687c1.375-1.664,2.684-3.332,3.868-4.999
	c2.658-3.718,4.928-7.556,6.747-11.407c1.608-3.404,2.864-6.827,3.739-10.174c1.305-4.978,1.836-9.798,1.622-14.739
	c-0.132-2.59-0.385-4.25-0.501-4.948c-0.007-0.049-0.016-0.104-0.021-0.142c-0.018-0.12-0.031-0.201-0.031-0.211h-0.005v-0.008
	l-0.004,0.005c-0.005,0.003-0.005,0.026,0.026,0.214c0.08,0.531,0.33,2.145,0.456,4.718c0.218,4.696-0.26,9.321-1.457,14.146
	c-1.813,7.256-5.271,14.544-10.284,21.666c-1.388,1.978-2.918,3.955-4.566,5.922c-0.269,0.029-0.534,0.056-0.807,0.087
	c5.029-6.013,8.333-11.43,10.604-16.103c2.36-4.901,3.629-9.008,4.383-12.381c1.453-6.76,1.168-10.616,1.092-12.779
	c-0.152-2.167-0.278-2.654-0.264-2.657l-2.664-0.591c-0.772,1.099-1.581,2.185-2.421,3.248c-1.166,0.515-2.35,1.01-3.534,1.497
	c-4.41,0.196-1.851,2.784-1.873,2.807c-0.191,13.413-7.105,27.021-18.386,39.083c-9.641,2.038-18.956,5.153-26.995,9.064
	c-0.346,0.167-0.675,0.347-1.017,0.518c0.341-0.17,0.68-0.342,1.024-0.509c8.031-3.904,17.336-7.017,26.971-9.056
	c-0.107,0.115-0.208,0.231-0.317,0.346c-4.749,1.021-9.467,2.3-14.04,3.857c-7.689,2.609-14.973,5.979-21.264,9.969
	c-6.292,3.99-11.572,8.605-15.268,13.516c-2.041,2.7-3.562,5.485-4.584,8.264c-0.153,0.063-0.305,0.126-0.458,0.188
	c1.22-3.43,3.235-6.849,5.99-10.154c2.922-3.528,6.782-6.975,11.311-10.142c-0.398,0.278-0.812,0.548-1.2,0.83
	c-3.897,2.837-7.192,5.846-9.818,8.951l-0.007-0.007c-0.979,1.135-2.453,2.932-3.937,5.425c-1.004,1.696-1.808,3.41-2.42,5.131
	c-1.836,0.752-3.682,1.489-5.546,2.196c-21.426,8.142-44.547,13.328-67.174,15.772c-22.64,2.458-44.836,2.101-64.921-0.826
	c-20.084-2.917-38.067-8.399-52.429-15.906c-14.381-7.484-25.039-17.01-31.075-27.448c-6.076-10.432-7.578-21.674-5.361-32.389
	c2.208-10.736,8.087-20.909,15.934-29.864c7.854-8.98,17.612-16.769,27.938-23.336c10.339-6.577,21.269-11.948,31.969-16.296
	c21.479-8.703,41.826-13.337,58.277-15.955c16.537-2.613,29.351-3.262,37.872-3.472c8.534-0.183,12.871,0.031,12.871,0.009
	c14.795,0.228,26.902,1.617,36.731,3.289c9.835,1.688,17.413,3.677,23.338,5.478c5.142,1.605,9.068,3.039,12.089,4.253
	c-0.699-0.3-1.433-0.608-2.21-0.925c-5.367-2.202-12.622-4.655-20.191-6.581c-7.552-1.948-15.371-3.374-21.322-4.227
	c-0.003,0-0.006-0.001-0.009-0.001c4.431,0.631,8.798,1.371,13.061,2.253c12.962,2.524,25.159,6.188,35.994,10.982
	c-6.612-3.069-13.797-5.706-21.36-7.909c3.314,0.872,8.815,2.485,14.792,4.776c5.988,2.284,12.404,5.277,17.9,8.485
	c11.139,6.358,17.935,13.637,17.92,13.614c-2.058-2.288-6.339-6.572-13.779-11.46c-7.42-4.88-18.122-10.304-32.08-14.656
	c-13.904-4.374-31.035-7.64-49.85-8.811c-18.784-1.211-39.168-0.313-58.952,2.604c-19.807,2.887-38.97,7.811-55.592,13.937
	c-16.656,6.107-30.714,13.364-41.41,20.289C38.521,47.639,31.095,54.18,26.404,58.866c-4.683,4.705-6.818,7.534-6.845,7.52
	c1.53-2.155,5.339-7.023,12.372-13.341c5.995-5.232,12.844-10.232,20.396-14.878c11.019-6.787,24.016-13.037,37.58-18.073
	c15.616-5.826,33.108-10.455,50.587-13.387c16.202-2.743,33.011-4.169,48.998-4.169c2.108,0,4.204,0.027,6.286,0.076
	c17.403,0.385,34.596,2.538,49.721,6.233c13.253,3.212,25.606,7.766,35.718,13.167c7.404,3.937,13.806,8.355,19.034,13.137
	l0.004-0.009c-5.224-4.786-11.626-9.204-19.034-13.137c-10.11-5.406-22.465-9.959-35.718-13.172
	c-15.124-3.695-32.321-5.848-49.725-6.232c-2.082-0.049-4.178-0.076-6.286-0.076c-15.987,0-32.796,1.425-49.001,4.169
	c-17.479,2.936-34.972,7.563-50.588,13.39C76.338,25.115,63.34,31.365,52.323,38.157c-7.336,4.508-14.009,9.359-19.878,14.428
	c7.208-6.402,17.853-14.193,32.103-21.618c14.312-7.497,32.26-14.547,52.267-19.668c19.986-5.143,41.902-8.355,63.336-9.084
	c21.447-0.76,42.299,1.046,60.171,4.862c17.935,3.784,32.81,9.547,43.702,15.642c10.96,6.081,17.988,12.412,22.202,17.046
	c4.204,4.66,5.85,7.578,5.897,7.56c-1.059-1.827-3.892-6.407-10.035-12.197c-6.107-5.782-15.759-12.681-29.556-18.614
	c-13.709-5.951-31.509-10.857-51.758-13.301c-20.205-2.489-42.756-2.493-64.908,0.071c-22.152,2.511-43.898,7.551-62.776,14.218
	C74.158,24.127,58.185,32.304,46.18,40.227c-12.069,7.921-20.205,15.517-25.229,20.959c-5.018,5.474-7.17,8.784-7.211,8.771
	c1.162-1.72,4.598-6.68,11.52-13.457c6.903-6.756,17.523-15.281,32.277-23.512c14.694-8.238,33.51-16.111,54.782-21.84
	c21.232-5.759,44.757-9.355,67.82-10.129c23.074-0.812,45.562,1.314,64.662,5.782c19.164,4.419,34.82,11.147,45.94,18.256
	c11.206,7.1,17.913,14.454,21.725,19.798c3.798,5.38,5.062,8.713,5.111,8.7c-1.351-3.093-4.991-11.233-15.884-20.746
	c-5.442-4.723-12.726-9.709-22.126-14.284c-9.375-4.571-20.857-8.726-34.203-11.841c-13.333-3.122-28.511-5.21-44.878-5.821
	c-16.361-0.625-33.891,0.232-51.65,2.721c-17.757,2.485-35.789,6.608-52.919,12.443c-17.136,5.809-33.359,13.315-47.371,22.207
	C34.535,47.116,22.772,57.4,14.537,68.344C6.275,79.272,1.69,90.831,1.047,101.773c-0.684,10.951,2.431,21.228,8.189,30.012
	c5.746,8.807,13.99,16.103,22.967,21.872c8.998,5.781,18.699,10.07,27.817,13.265c9.15,3.195,17.726,5.313,24.945,6.77
	c7.229,1.461,13.101,2.274,17.122,2.774c4.021,0.492,6.201,0.688,6.201,0.688c14.294,1.398,28.362,1.494,41.504,0.74
	c-9.041,0.531-18.003,0.676-26.693,0.368c-21.062-0.736-41.347-3.99-58.812-9.414c-0.612-0.193-1.23-0.383-1.836-0.581
	c-0.075-0.025-0.172-0.057-0.327-0.107c-0.016-0.005-0.036-0.012-0.052-0.017c-2.355-0.779-4.656-1.603-6.907-2.461
	c-1.695-0.652-3.638-1.433-5.802-2.356c-2.916-1.263-5.695-2.575-8.348-3.94c2.562,1.321,5.233,2.596,8.078,3.834
	c-0.067-0.029-0.135-0.059-0.202-0.088c0.133,0.058,0.263,0.117,0.396,0.175c0.024,0.011,0.047,0.021,0.071,0.032
	c0.01,0.004,0.019,0.008,0.028,0.012c0.662,0.284,1.331,0.562,2.001,0.839c-0.569-0.234-1.136-0.471-1.699-0.711
	c0.603,0.255,1.188,0.5,1.755,0.733c-0.019-0.008-0.038-0.015-0.056-0.022c0.456,0.188,0.912,0.375,1.372,0.559
	c0.38,0.153,0.751,0.301,1.112,0.443c0.221,0.086,0.435,0.18,0.656,0.265c0.158,0.062,0.321,0.118,0.479,0.179
	c3.594,1.386,6.078,2.198,7.111,2.538c0.02,0.006,0.028,0.009,0.046,0.015c0.094,0.031,0.19,0.062,0.284,0.092
	c0.088,0.029,0.147,0.051,0.166,0.06l-0.006,0.004h0.015c0.45,0.145,0.911,0.282,1.365,0.424c7.392,2.351,15.252,4.318,23.499,5.858
	c8.101,1.51,16.304,2.588,25.084,3.289c2.426,0.187,6.045,0.441,9.508,0.576c0.121,0.005,0.188,0.008,0.192,0.005v0.003h0.004
	c2.987,0.135,6.005,0.2,9.037,0.23c-3.036-0.031-6.05-0.109-9.037-0.243c-0.008,0-0.049,0-0.196-0.009
	c-3.463-0.134-7.082-0.389-9.508-0.572c-8.775-0.706-16.983-1.782-25.084-3.293c-7.483-1.395-14.653-3.139-21.44-5.205
	c8.078,2.417,16.73,4.382,25.765,5.849c10.048,1.632,20.576,2.646,31.285,3.017c3.218,0.116,6.466,0.174,9.745,0.174
	c7.291,0,14.709-0.286,22.144-0.85c10.406-0.79,20.907-2.135,31.205-3.998c9.986-1.801,19.897-4.115,29.454-6.89
	c6.442-1.868,12.723-3.96,18.793-6.221c-0.001,0.143,0.006,0.285,0.008,0.428c-9.312,3.465-19.124,6.511-29.011,8.975
	c-14.48,3.618-29.476,6.165-44.568,7.577c-0.924,0.087-1.847,0.16-2.77,0.238c0.924-0.078,1.845-0.143,2.77-0.229
	c15.093-1.407,30.088-3.958,44.568-7.578c7.632-1.898,15.214-4.137,22.536-6.644c2.184-0.747,4.338-1.526,6.475-2.322
	c0.035,2.802,0.6,5.577,1.702,8.176c1.667,3.994,4.691,7.814,8.749,11.045c3.396,2.736,7.719,5.212,12.57,7.212
	c0.459,0.19,0.894,0.365,1.299,0.524c0.05,0.02,0.097,0.041,0.147,0.06c0.028,0.011,0.058,0.02,0.085,0.03
	c1.647,0.64,2.799,1.02,3.292,1.179c0.044,0.015,0.088,0.03,0.132,0.044c0.059,0.021,0.105,0.036,0.115,0.039l0.008,0.005
	c0.515,0.166,1.05,0.314,1.576,0.472c3.041,0.926,6.235,1.723,9.586,2.347c3.637,0.68,7.318,1.162,11.264,1.479
	c1.567,0.121,3.092,0.214,4.289,0.259c0.031,0,0.054,0,0.063,0h0.003c1.743,0.08,3.504,0.121,5.282,0.121
	c3.954,0,7.984-0.192,12.041-0.576c6.778-0.635,13.507-1.778,20.008-3.405c6.916-1.72,13.757-4.07,19.775-6.792
	c6.117-2.756,11.796-6.08,16.421-9.601c4.404-3.343,8.123-7.064,10.75-10.769c2.242-3.133,3.868-6.483,4.709-9.691
	c0.585-2.234,0.827-4.396,0.729-6.612c-0.062-1.225-0.192-2.015-0.233-2.274c-0.001-0.011-0.003-0.018-0.004-0.027
	c-0.005-0.041-0.013-0.076-0.009-0.08h-0.01v-0.009h-0.004v0.004c0,0.001,0.001,0.006,0.001,0.008
	c-0.001,0.01,0.001,0.029,0.013,0.104c0.006,0.034,0.017,0.103,0.024,0.155c0.048,0.326,0.133,0.974,0.181,1.949
	c0.096,2.108-0.12,4.187-0.656,6.349c-0.812,3.258-2.363,6.528-4.615,9.728c-2.757,3.932-6.711,7.863-11.434,11.375
	c-5.309,3.959-11.895,7.609-19.048,10.554c-7.686,3.173-16.41,5.692-25.231,7.279c-1.577,0.285-3.167,0.532-4.761,0.762
	c5.129-0.748,9.717-1.718,13.622-2.719c5.316-1.363,9.387-2.775,12.117-3.794c2.729-1.027,4.15-1.666,4.154-1.658
	c7.262-3.002,13.048-6.313,17.587-9.529c4.544-3.226,7.854-6.367,10.285-9.209c2.431-2.847,3.995-5.397,5.058-7.592
	c1.06-2.198,1.627-4.044,1.967-5.558c0.652-3.034,0.527-4.764,0.49-5.737c-0.066-0.975-0.124-1.193-0.115-1.193l-1.198-0.264
	c-0.349,0.492-0.71,0.979-1.085,1.457c-0.523,0.232-1.055,0.456-1.587,0.675c-1.979,0.085-0.829,1.247-0.839,1.255
	c-0.104,7.002-4.268,14.115-10.857,20.12c-6.587,6.041-15.441,11.023-25.039,14.66c-9.616,3.654-19.999,5.982-30.155,7.081
	c-10.16,1.104-20.124,0.943-29.141-0.37c-9.017-1.309-17.091-3.776-23.537-7.14c-6.457-3.36-11.237-7.637-13.95-12.323
	c-2.066-3.55-2.951-7.309-2.827-11.015c0.081-0.031,0.165-0.062,0.246-0.094c-0.052,0.885-0.028,1.471-0.019,1.722
	c0.005,0.066,0.005,0.11,0.005,0.12h0.005v0.008l0.005-0.003c0.003-0.005,0.003-0.015,0-0.125c-0.013-0.252-0.036-0.839,0.016-1.726
	c3.774-1.479,7.461-3.024,11.02-4.633c6.85-3.088,13.449-6.483,19.619-10.098c6.121-3.58,11.832-7.382,16.966-11.291
	c6.632-5.033,12.541-10.46,17.5-15.995c0.067-0.008,0.134-0.019,0.202-0.026c-0.065,0.008-0.131,0.012-0.196,0.021
	c0.144-0.16,0.286-0.32,0.428-0.481c4.967-0.587,8.949-0.771,11.833-0.842c3.83-0.085,5.777,0.014,5.777,0.005
	c6.64,0.103,12.077,0.724,16.491,1.474c4.416,0.76,7.815,1.649,10.475,2.458c2.284,0.714,4.032,1.351,5.381,1.893
	c-0.3-0.129-0.614-0.26-0.946-0.396c-2.408-0.992-5.665-2.092-9.066-2.953c-3.386-0.877-6.897-1.515-9.569-1.899
	c-0.146-0.021-0.278-0.039-0.418-0.058c2.131,0.295,4.23,0.646,6.275,1.068c5.821,1.135,11.296,2.779,16.161,4.929
	c-2.972-1.377-6.193-2.556-9.594-3.548c1.493,0.389,3.959,1.117,6.645,2.145c2.686,1.023,5.567,2.367,8.033,3.807
	c5.004,2.854,8.053,6.121,8.047,6.112c-0.925-1.023-2.846-2.949-6.188-5.143c-3.327-2.194-8.136-4.625-14.399-6.581
	c-6.242-1.962-13.932-3.427-22.377-3.955c-6.949-0.449-14.381-0.245-21.748,0.572c0.104-0.12,0.216-0.238,0.319-0.358
	c4.828-0.534,9.677-0.812,14.371-0.812c0.942,0,1.886,0.01,2.819,0.031c7.814,0.175,15.535,1.14,22.317,2.797
	c5.951,1.443,11.496,3.49,16.036,5.912c3.323,1.77,6.197,3.753,8.543,5.897l0.009-0.009c-2.346-2.145-5.219-4.129-8.547-5.898
	c-4.541-2.426-10.084-4.468-16.036-5.911c-6.787-1.657-14.508-2.626-22.322-2.802c-5.548-0.129-11.38,0.145-17.182,0.785
	c0.062-0.073,0.12-0.146,0.182-0.218c3.325-0.368,6.667-0.622,9.984-0.736c9.629-0.34,18.989,0.473,27.01,2.185
	c8.052,1.697,14.731,4.285,19.619,7.02c4.919,2.734,8.074,5.576,9.968,7.653c1.887,2.091,2.624,3.404,2.646,3.392
	c-0.475-0.818-1.748-2.873-4.505-5.474c-2.743-2.592-7.073-5.692-13.266-8.354c-6.157-2.672-14.146-4.875-23.234-5.97
	c-8.702-1.07-18.364-1.107-27.914-0.093c0.061-0.073,0.118-0.146,0.178-0.218c3.161-0.333,6.335-0.571,9.492-0.678
	c10.357-0.361,20.451,0.591,29.024,2.597c8.606,1.983,15.634,5.004,20.626,8.194c5.03,3.186,8.042,6.487,9.753,8.892
	c1.702,2.412,2.275,3.909,2.292,3.9c-0.603-1.385-2.238-5.04-7.131-9.312c-2.439-2.118-5.71-4.355-9.928-6.411
	c-4.209-2.052-9.365-3.919-15.356-5.313c-5.982-1.402-12.798-2.341-20.147-2.613c-5.916-0.227-12.176-0.013-18.556,0.66
	c0.087-0.105,0.171-0.21,0.258-0.315C310.311,113.97,313.911,113.784,316.684,113.717z M212.891,5.415
	c-0.151-0.016-0.236-0.024-0.236-0.026C212.734,5.396,212.812,5.407,212.891,5.415z M219.675,6.203
	c-0.671-0.088-1.305-0.168-1.896-0.241C218.414,6.039,219.044,6.121,219.675,6.203z M58.971,167.09
	c0.752,0.266,1.513,0.524,2.276,0.781C60.659,167.676,59.896,167.417,58.971,167.09z M56.465,166.176
	c0.246,0.092,0.491,0.184,0.738,0.274C56.964,166.362,56.718,166.271,56.465,166.176z M330.09,116.111
	c-0.112-0.011-0.19-0.02-0.189-0.021C329.964,116.096,330.026,116.104,330.09,116.111z M333.249,116.482
	c-0.425-0.057-0.812-0.105-1.168-0.148C332.471,116.381,332.86,116.432,333.249,116.482z M310.313,108.516
	c5.013-7.122,8.476-14.41,10.286-21.67c1.201-4.821,1.675-9.45,1.46-14.15c-0.075-1.56-0.197-2.762-0.299-3.589
	c0.12,0.894,0.266,2.217,0.358,3.965c0.214,4.941-0.318,9.758-1.624,14.735c-1.867,7.14-5.495,14.601-10.485,21.58
	c-1.187,1.669-2.498,3.339-3.875,5.005c-0.123,0.013-0.247,0.027-0.371,0.04C307.406,112.466,308.929,110.49,310.313,108.516z
	 M305.727,114.449c-0.088,0.105-0.174,0.21-0.263,0.315c-0.269,0.029-0.536,0.055-0.805,0.086c0.089-0.105,0.172-0.209,0.26-0.314
	C305.193,114.505,305.458,114.478,305.727,114.449z M234.509,160.463c0.126-0.048,0.256-0.092,0.382-0.14
	c-0.002,0.143-0.009,0.285-0.008,0.427c-0.124,0.046-0.245,0.094-0.368,0.141C234.513,160.748,234.508,160.605,234.509,160.463z
	 M234.51,160.445c0.001-0.097,0.008-0.193,0.01-0.29c0.126-0.049,0.254-0.098,0.377-0.145c-0.003,0.099-0.004,0.197-0.006,0.296
	C234.766,160.354,234.636,160.398,234.51,160.445z M234.457,160.18c0.018-0.007,0.035-0.014,0.053-0.021
	c-0.002,0.097-0.009,0.193-0.01,0.29c-0.015,0.006-0.03,0.011-0.045,0.017C234.455,160.37,234.455,160.275,234.457,160.18z
	 M238.268,158.686c0.083-0.033,0.171-0.068,0.251-0.101c-0.011,0.112-0.022,0.227-0.031,0.331c-0.082,0.032-0.162,0.065-0.244,0.097
	C238.25,158.904,238.26,158.795,238.268,158.686z M290.521,118.053c-5.459,1.229-10.801,2.795-15.725,4.63
	c-6.09,2.257-11.925,5.062-16.871,8.114c-3.384,2.076-6.438,4.317-9.125,6.657c0.039-0.035,0.072-0.067,0.112-0.103
	c3.24-2.886,8.048-6.416,14.503-9.775c6.422-3.37,14.481-6.533,23.462-8.834c1.274-0.328,2.57-0.634,3.877-0.927
	C290.678,117.896,290.598,117.974,290.521,118.053z M248.573,137.664c2.737-2.408,5.879-4.716,9.356-6.856
	c4.951-3.048,10.782-5.854,16.872-8.11c4.917-1.836,10.25-3.399,15.703-4.626c-0.119,0.122-0.239,0.242-0.359,0.363
	c-5.303,1.201-10.371,2.699-15,4.406c-7.479,2.744-13.789,6.002-18.592,9.106c-4.821,3.109-8.154,6.045-10.263,8.15
	c-2.101,2.112-3.062,3.382-3.074,3.377C243.892,142.527,245.551,140.41,248.573,137.664z M302.744,117.06
	c0.271-0.035,0.546-0.071,0.812-0.104c-0.143,0.159-0.289,0.317-0.433,0.476c-0.275,0.035-0.546,0.083-0.821,0.12
	C302.451,117.388,302.597,117.224,302.744,117.06z M303.575,116.121c0.101-0.116,0.202-0.231,0.301-0.347
	c0.267-0.032,0.534-0.062,0.801-0.093c-0.102,0.118-0.205,0.236-0.308,0.354C304.104,116.064,303.839,116.089,303.575,116.121z
	 M303.894,115.754c0.062-0.072,0.126-0.144,0.188-0.216c0.267-0.032,0.534-0.062,0.801-0.093c-0.063,0.074-0.129,0.148-0.193,0.222
	C304.424,115.698,304.158,115.723,303.894,115.754z M304.415,115.146c0.06-0.071,0.114-0.139,0.174-0.21
	c0.268-0.031,0.536-0.057,0.804-0.086c-0.061,0.072-0.118,0.144-0.18,0.215C304.948,115.094,304.681,115.115,304.415,115.146z
	 M245.777,139.032c3.1-3.029,7.867-6.857,14.489-10.553c6.6-3.695,15.045-7.234,24.592-9.804c2.153-0.584,4.365-1.111,6.609-1.593
	c-0.075,0.08-0.149,0.16-0.225,0.239c-5.272,1.139-10.345,2.556-15.016,4.204c-8.498,2.976-15.669,6.648-21.058,10.201
	c-5.415,3.556-9.071,6.965-11.322,9.409c-2.257,2.458-3.222,3.945-3.239,3.938C241.13,144.305,242.671,142.075,245.777,139.032z
	 M245.781,142.567c3.526-4.03,7.909-7.529,12.542-10.474c4.643-2.953,9.548-5.366,14.352-7.314
	c5.718-2.318,11.247-3.982,16.348-5.208c-0.197,0.194-0.397,0.388-0.597,0.582c-5.195,1.283-10.227,2.881-14.876,4.733
	c-7.608,3.012-14.524,6.827-19.998,11.036c-6.286,4.794-9.701,9.338-11.461,12.301c-0.506,0.845-0.956,1.692-1.358,2.541
	c-0.151,0.066-0.303,0.132-0.455,0.197C241.61,147.989,243.507,145.163,245.781,142.567z M288.411,120.167
	c-0.767,0.742-1.542,1.481-2.341,2.209c-12.242,11.228-28.012,20.804-45.319,28.381c0.4-0.844,0.847-1.687,1.349-2.525
	c1.761-2.966,5.174-7.505,11.456-12.3c5.473-4.204,12.39-8.021,19.999-11.036C278.198,123.045,283.224,121.449,288.411,120.167z
	 M238.275,147.714c1.295-2.188,2.588-3.838,3.546-4.974c-2.718,3.283-4.706,6.666-5.916,10.069c-0.015,0.006-0.03,0.012-0.045,0.019
	C236.471,151.112,237.273,149.403,238.275,147.714z M165.249,176.594c-2.742,0.301-5.482,0.565-8.222,0.792
	c1.954-0.161,3.89-0.336,5.792-0.531C163.634,176.771,164.442,176.683,165.249,176.594z M150.272,177.865
	c2.047-0.12,4.074-0.26,6.073-0.42C154.317,177.608,152.294,177.743,150.272,177.865z M186.191,173.584
	c-6.384,1.154-12.852,2.081-19.334,2.827c14.99-1.737,28.218-4.411,39.077-7.197c11.836-3.033,20.901-6.174,26.992-8.453
	c0.531-0.2,1.032-0.391,1.518-0.576c-0.002,0.095-0.002,0.19-0.002,0.286C219.365,166.079,202.864,170.582,186.191,173.584z
	 M234.454,160.482c0.015-0.005,0.03-0.011,0.045-0.016c-0.001,0.143,0.004,0.285,0.005,0.428c-0.014,0.005-0.028,0.011-0.042,0.016
	C234.459,160.768,234.453,160.626,234.454,160.482z M236.161,169.103c-1.1-2.6-1.666-5.374-1.699-8.175
	c0.015-0.006,0.029-0.011,0.043-0.017c0.008,0.717,0.044,1.431,0.124,2.142c0.339,3.101,1.354,6.1,3.017,8.9
	c1.447,2.458,3.418,4.808,5.854,6.979c1.695,1.506,3.567,2.892,5.631,4.183c-1.523-0.947-2.944-1.939-4.225-2.972
	C240.852,176.912,237.828,173.093,236.161,169.103z M249.44,183.312c0.255,0.157,0.522,0.308,0.784,0.462
	C249.962,183.619,249.696,183.468,249.44,183.312z M251.208,184.346c0.158,0.088,0.325,0.174,0.485,0.262
	C251.533,184.52,251.367,184.435,251.208,184.346z M253.011,185.308c0.155,0.079,0.316,0.155,0.473,0.233
	C253.327,185.463,253.167,185.388,253.011,185.308z M254.89,186.226c0.125,0.059,0.255,0.114,0.381,0.173
	C255.144,186.34,255.015,186.284,254.89,186.226z M259.457,188.142c0.808,0.305,1.629,0.601,2.468,0.883
	C261.396,188.849,260.559,188.561,259.457,188.142z M312.345,192.48c-0.634,0.087-1.267,0.175-1.902,0.253
	C311.087,192.653,311.717,192.567,312.345,192.48z M238.587,172.829c2.578,3.953,6.278,7.229,10.308,9.82
	c4.039,2.596,8.392,4.521,12.488,5.956c4.105,1.435,7.958,2.382,11.196,3.038c3.244,0.652,5.881,1.02,7.686,1.247
	c1.805,0.219,2.784,0.305,2.784,0.308c5.362,0.524,10.654,0.64,15.692,0.467c-0.554,0.021-1.108,0.044-1.66,0.057
	c2.298-0.053,4.609-0.145,6.931-0.322c4.675-0.356,9.384-0.961,14.008-1.796c8.824-1.59,17.552-4.106,25.236-7.278
	c7.153-2.948,13.739-6.6,19.051-10.558c4.723-3.513,8.678-7.448,11.434-11.38c2.254-3.199,3.808-6.471,4.621-9.728
	c0.535-2.167,0.75-4.245,0.652-6.354c-0.014-0.289-0.03-0.55-0.049-0.783c0.026,0.282,0.052,0.593,0.071,0.953
	c0.093,2.216-0.143,4.378-0.729,6.612c-0.84,3.204-2.466,6.551-4.71,9.683c-2.627,3.704-6.344,7.426-10.745,10.768
	c-4.624,3.521-10.304,6.841-16.424,9.603c-6.015,2.716-12.855,5.066-19.771,6.791c-6.497,1.621-13.231,2.766-20.004,3.4
	c-5.88,0.554-11.701,0.711-17.323,0.46c-0.009,0-0.021-0.004-0.066-0.004c-1.193-0.045-2.716-0.14-4.289-0.26
	c-3.941-0.316-7.627-0.8-11.26-1.474c-2.758-0.516-5.416-1.14-7.966-1.858c7.262,2.005,15.465,3.211,23.948,3.506
	c1.443,0.05,2.903,0.076,4.375,0.076c0.671,0,1.353-0.028,2.028-0.039c-2.16,0.036-4.3,0.024-6.403-0.05
	c-9.13-0.318-17.92-1.702-25.575-3.986c-0.572-0.174-1.157-0.336-1.716-0.521c-0.018-0.006-0.028-0.009-0.052-0.017
	c-1.1-0.362-2.17-0.748-3.219-1.149c-0.291-0.112-0.597-0.232-0.919-0.361c-0.229-0.092-0.457-0.184-0.684-0.277
	c-0.297-0.122-0.6-0.248-0.918-0.383c-0.025-0.012-0.05-0.022-0.076-0.034c-5.243-2.282-9.512-4.909-13.033-8.038
	c-2.436-2.172-4.405-4.518-5.853-6.979c-1.657-2.797-2.672-5.791-3.016-8.896c-0.079-0.71-0.115-1.424-0.123-2.141
	c0.123-0.046,0.244-0.094,0.367-0.14C234.896,165.152,236.249,169.268,238.587,172.829z M307.481,193.069
	c-0.317,0.032-0.634,0.057-0.951,0.087C306.846,193.126,307.169,193.102,307.481,193.069z M304.281,193.353
	c-0.568,0.044-1.134,0.08-1.701,0.117C303.15,193.433,303.719,193.396,304.281,193.353z M301.312,193.547
	c-0.845,0.047-1.686,0.085-2.526,0.116C299.637,193.634,300.477,193.592,301.312,193.547z M238.21,159.48
	c0.005-0.15,0.024-0.3,0.033-0.45c0.082-0.031,0.162-0.064,0.244-0.097c-0.013,0.161-0.022,0.309-0.031,0.453
	C238.375,159.419,238.292,159.449,238.21,159.48z M286.065,133.371c-10.304,7.846-22.957,15.24-36.584,21.385
	c-3.552,1.605-7.238,3.148-11.015,4.627c0.009-0.145,0.018-0.293,0.031-0.453c1.306-0.513,2.624-1.018,3.905-1.547
	c0.609-0.251,1.202-0.52,1.808-0.774c-0.603,0.254-1.205,0.511-1.812,0.761c-1.279,0.528-2.596,1.031-3.9,1.543
	c0.009-0.105,0.02-0.22,0.031-0.331c2.409-0.973,3.646-1.522,3.654-1.512c16.166-6.684,29.056-14.056,39.167-21.228
	c8.949-6.356,15.75-12.56,20.949-18.288c0.27-0.036,0.54-0.073,0.81-0.107c-5.17,5.697-11.349,11.258-18.277,16.407
	c-6.455,4.815-13.763,9.423-21.658,13.685c0.821-0.443,1.659-0.876,2.467-1.327c6.952-3.878,13.413-8.032,19.199-12.345
	c5.474-4.069,10.479-8.378,14.875-12.81c1.188-1.196,2.326-2.402,3.425-3.614c0.137-0.018,0.274-0.038,0.412-0.055
	C298.594,122.919,292.689,128.341,286.065,133.371z M303.558,117.382c-0.135,0.017-0.27,0.029-0.404,0.046
	c0.143-0.158,0.285-0.316,0.427-0.475c0.132-0.016,0.273-0.036,0.404-0.051C303.843,117.062,303.701,117.222,303.558,117.382z
	 M304.798,115.988c-0.134,0.015-0.268,0.028-0.401,0.043c0.103-0.118,0.203-0.235,0.305-0.354c0.138-0.016,0.276-0.033,0.415-0.048
	C305.014,115.75,304.901,115.868,304.798,115.988z M305.125,115.62c-0.137,0.015-0.275,0.03-0.412,0.045
	c0.063-0.074,0.127-0.148,0.191-0.222c0.134-0.015,0.269-0.027,0.404-0.042C305.246,115.474,305.188,115.547,305.125,115.62z
	 M305.617,115.024c-0.128,0.014-0.256,0.025-0.384,0.039c0.061-0.072,0.125-0.144,0.187-0.216c0.125-0.014,0.25-0.027,0.375-0.04
	C305.734,114.879,305.678,114.952,305.617,115.024z M305.864,114.722c-0.125,0.013-0.25,0.026-0.374,0.04
	c0.088-0.105,0.173-0.21,0.261-0.315c0.124-0.013,0.249-0.027,0.371-0.04C306.035,114.512,305.952,114.617,305.864,114.722z"/>
<path fill="#00AAC8" d="M256.2,130.528c0.142-0.09,0.286-0.179,0.429-0.268C256.485,130.35,256.342,130.438,256.2,130.528z"/>
<path fill="#00AAC8" d="M259.282,128.673c0.31-0.178,0.623-0.354,0.937-0.528C259.905,128.319,259.592,128.495,259.282,128.673z"/>
<path fill="#00AAC8" d="M256.628,130.261c0.866-0.54,1.75-1.069,2.653-1.588C258.378,129.19,257.496,129.721,256.628,130.261z"/>
<path fill="#00AAC8" d="M253.229,132.502c0.96-0.671,1.953-1.329,2.971-1.974C255.182,131.172,254.192,131.829,253.229,132.502z"/>
<path fill="#00AAC8" d="M303.771,117.36c1.262-0.153,2.526-0.281,3.79-0.396C306.297,117.079,305.033,117.207,303.771,117.36z"/>
<path fill="#00AAC8" d="M309.281,116.814c1.24-0.097,2.476-0.175,3.707-0.235C311.757,116.64,310.521,116.718,309.281,116.814z"/>
<path fill="#00AAC8" d="M307.561,116.964c0.574-0.053,1.148-0.104,1.721-0.149C308.708,116.859,308.136,116.911,307.561,116.964z"/>
<path fill="#00AAC8" d="M314.73,116.507c1.223-0.043,2.44-0.073,3.644-0.079C317.17,116.434,315.953,116.464,314.73,116.507z"/>
<path fill="#00AAC8" d="M338.095,118.073c4.425,0.804,7.332,1.657,8.289,1.938l0.004-0.013c-0.956-0.282-3.865-1.135-8.288-1.939
	c-3.682-0.67-9.615-1.497-16.988-1.627c-0.705-0.013-1.415-0.018-2.135-0.018c-0.199,0-0.404,0.012-0.603,0.013
	c0.919-0.005,1.833,0,2.738,0.018C328.485,116.572,334.418,117.398,338.095,118.073z"/>
<path fill="#00AAC8" d="M312.988,116.579c0.583-0.029,1.163-0.052,1.743-0.072C314.15,116.528,313.572,116.55,312.988,116.579z"/>
<path fill="#00AAC8" d="M228.016,181.497c3.123,2.516,6.813,4.682,10.755,6.559c-3.499,1.3-7.078,2.363-10.684,3.025
	c-3.279,0.603-6.604,0.876-9.786,0.554c-3.175-0.312-6.201-1.277-8.596-3.064c-2.413-1.77-4.146-4.365-5.219-7.328
	c-1.076-2.971-1.537-6.26-1.652-9.58l-4.697,0.157c0.13,3.664,0.627,7.403,1.935,11.026c1.288,3.606,3.57,7.109,6.833,9.5
	c3.243,2.417,7.158,3.597,10.919,3.968c3.795,0.375,7.516,0.049,11.113-0.608c3.954-0.728,7.769-1.872,11.474-3.244
	c-1.936,4.058-4.25,8.088-7.243,11.979c2.604-0.586,5.107-1.305,7.537-2.113c3.048-5.146,5.336-10.389,7.149-15.625
	c-5.232-1.81-10.192-4.013-14.58-6.68C231.501,180.612,229.736,181.112,228.016,181.497z"/>
<path fill="#00AAC8" d="M334.276,204.762c-1.351-3.654-2.797-7.225-4.178-10.785c-0.554-1.426-1.095-2.847-1.613-4.271l-4.419,1.608
	c0.536,1.466,1.085,2.917,1.648,4.36c1.399,3.605,2.837,7.158,4.15,10.715c-4.011-1.818-8.051-3.472-12.13-5.291l2.386,6.104
	c4.999,2.104,9.924,4.182,14.739,6.925c2.754-4.816,5.019-10.125,7.217-15.339l-2.458-6.277
	C337.832,196.532,336.116,200.696,334.276,204.762z"/>
</svg>
